HIERARCHY
ROOT pelvis
{
	OFFSET 0.003123 -0.351407 0.012037
	CHANNELS 6 Xposition Yposition Zposition Zrotation Yrotation Xrotation 
	JOINT left_hip
	{
		OFFSET 0.058189 -0.092763 -0.026001
		CHANNELS 3 Zrotation Yrotation Xrotation
		JOINT left_knee
		{
			OFFSET 0.054695 -0.378753 -0.009396
			CHANNELS 3 Zrotation Yrotation Xrotation
			JOINT left_ankle
			{
				OFFSET -0.043453 -0.403059 -0.031876
				CHANNELS 3 Zrotation Yrotation Xrotation
				JOINT left_foot
				{
					OFFSET 0.047257 -0.057997 0.118216
					CHANNELS 3 Zrotation Yrotation Xrotation
					End Site
					{
						OFFSET 0.000000 0.000000 0.000000
					}
				}
			}
		}
	}
	JOINT right_hip
	{
		OFFSET -0.063267 -0.103908 -0.021250
		CHANNELS 3 Zrotation Yrotation Xrotation
		JOINT right_knee
		{
			OFFSET -0.044210 -0.362380 -0.016824
			CHANNELS 3 Zrotation Yrotation Xrotation
			JOINT right_ankle
			{
				OFFSET 0.015417 -0.410728 -0.020192
				CHANNELS 3 Zrotation Yrotation Xrotation
				JOINT right_foot
				{
					OFFSET -0.038812 -0.058328 0.119049
					CHANNELS 3 Zrotation Yrotation Xrotation
					End Site
					{
						OFFSET 0.000000 0.000000 0.000000
					}
				}
			}
		}
	}
	JOINT spine_1
	{
		OFFSET -0.002763 0.109891 -0.027618
		CHANNELS 3 Zrotation Yrotation Xrotation
		JOINT spine_2
		{
			OFFSET 0.009448 0.131853 -0.005940
			CHANNELS 3 Zrotation Yrotation Xrotation
			JOINT spine_3
			{
				OFFSET -0.011330 0.052235 0.028447
				CHANNELS 3 Zrotation Yrotation Xrotation
				JOINT neck
				{
					OFFSET -0.012164 0.165167 -0.031615
					CHANNELS 3 Zrotation Yrotation Xrotation
					JOINT head
					{
						OFFSET 0.024783 0.160452 0.020737
						CHANNELS 3 Zrotation Yrotation Xrotation
						End Site
						{
							OFFSET 0.000000 0.000000 0.000000
						}
					}
				}
				JOINT left_collar
				{
					OFFSET 0.046364 0.084944 -0.007220
					CHANNELS 3 Zrotation Yrotation Xrotation
					JOINT left_shoulder
					{
						OFFSET 0.119239 0.057728 -0.015461
						CHANNELS 3 Zrotation Yrotation Xrotation
						JOINT left_elbow
						{
							OFFSET 0.254123 -0.072151 -0.042459
							CHANNELS 3 Zrotation Yrotation Xrotation
							JOINT left_wrist
							{
								OFFSET 0.251987 0.023221 -0.002472
								CHANNELS 3 Zrotation Yrotation Xrotation
								JOINT left_index_1
								{
									OFFSET 0.101902 -0.008688 0.019351
									CHANNELS 3 Zrotation Yrotation Xrotation
									JOINT left_index_2
									{
										OFFSET 0.030149 -0.011154 0.001151
										CHANNELS 3 Zrotation Yrotation Xrotation
										JOINT left_index_3
										{
											OFFSET 0.006504 -0.021577 -0.002433
											CHANNELS 3 Zrotation Yrotation Xrotation
											End Site
											{
												OFFSET 0.000000 0.000000 0.000000
											}
										}
									}
								}
								JOINT left_middle_1
								{
									OFFSET 0.109398 -0.006328 -0.003981
									CHANNELS 3 Zrotation Yrotation Xrotation
									JOINT left_middle_2
									{
										OFFSET 0.026472 -0.015218 -0.004641
										CHANNELS 3 Zrotation Yrotation Xrotation
										JOINT left_middle_3
										{
											OFFSET 0.005022 -0.023347 -0.001911
											CHANNELS 3 Zrotation Yrotation Xrotation
											End Site
											{
												OFFSET 0.000000 0.000000 0.000000
											}
										}
									}
								}
								JOINT left_pinky_1
								{
									OFFSET 0.084047 -0.014539 -0.043750
									CHANNELS 3 Zrotation Yrotation Xrotation
									JOINT left_pinky_2
									{
										OFFSET 0.012124 -0.014448 -0.005375
										CHANNELS 3 Zrotation Yrotation Xrotation
										JOINT left_pinky_3
										{
											OFFSET 0.003798 -0.018853 0.000167
											CHANNELS 3 Zrotation Yrotation Xrotation
											End Site
											{
												OFFSET 0.000000 0.000000 0.000000
											}
										}
									}
								}
								JOINT left_ring_1
								{
									OFFSET 0.097444 -0.009268 -0.027345
									CHANNELS 3 Zrotation Yrotation Xrotation
									JOINT left_ring_2
									{
										OFFSET 0.023561 -0.016057 -0.001895
										CHANNELS 3 Zrotation Yrotation Xrotation
										JOINT left_ring_3
										{
											OFFSET 0.004257 -0.023548 0.000814
											CHANNELS 3 Zrotation Yrotation Xrotation
											End Site
											{
												OFFSET 0.000000 0.000000 0.000000
											}
										}
									}
								}
								JOINT left_thumb_1
								{
									OFFSET 0.040636 -0.017977 0.025611
									CHANNELS 3 Zrotation Yrotation Xrotation
									JOINT left_thumb_2
									{
										OFFSET 0.021637 -0.017639 0.011623
										CHANNELS 3 Zrotation Yrotation Xrotation
										JOINT left_thumb_3
										{
											OFFSET 0.024002 -0.008356 0.006548
											CHANNELS 3 Zrotation Yrotation Xrotation
											End Site
											{
												OFFSET 0.000000 0.000000 0.000000
											}
										}
									}
								}
							}
						}
					}
				}
				JOINT right_collar
				{
					OFFSET -0.047695 0.084339 -0.013400
					CHANNELS 3 Zrotation Yrotation Xrotation
					JOINT right_shoulder
					{
						OFFSET -0.102578 0.053524 -0.012669
						CHANNELS 3 Zrotation Yrotation Xrotation
						JOINT right_elbow
						{
							OFFSET -0.271150 -0.036492 -0.026467
							CHANNELS 3 Zrotation Yrotation Xrotation
							JOINT right_wrist
							{
								OFFSET -0.249267 -0.004533 -0.015325
								CHANNELS 3 Zrotation Yrotation Xrotation
								JOINT right_index_1
								{
									OFFSET -0.099881 -0.011783 0.019600
									CHANNELS 3 Zrotation Yrotation Xrotation
									JOINT right_index_2
									{
										OFFSET -0.030148 -0.011154 0.001151
										CHANNELS 3 Zrotation Yrotation Xrotation
										JOINT right_index_3
										{
											OFFSET -0.006505 -0.021577 -0.002432
											CHANNELS 3 Zrotation Yrotation Xrotation
											End Site
											{
												OFFSET 0.000000 0.000000 0.000000
											}
										}
									}
								}
								JOINT right_middle_1
								{
									OFFSET -0.107376 -0.009422 -0.003734
									CHANNELS 3 Zrotation Yrotation Xrotation
									JOINT right_middle_2
									{
										OFFSET -0.026472 -0.015218 -0.004641
										CHANNELS 3 Zrotation Yrotation Xrotation
										JOINT right_middle_3
										{
											OFFSET -0.005022 -0.023347 -0.001911
											CHANNELS 3 Zrotation Yrotation Xrotation
											End Site
											{
												OFFSET 0.000000 0.000000 0.000000
											}
										}
									}
								}
								JOINT right_pinky_1
								{
									OFFSET -0.082027 -0.017634 -0.043503
									CHANNELS 3 Zrotation Yrotation Xrotation
									JOINT right_pinky_2
									{
										OFFSET -0.012123 -0.014448 -0.005374
										CHANNELS 3 Zrotation Yrotation Xrotation
										JOINT right_pinky_3
										{
											OFFSET -0.003798 -0.018852 0.000167
											CHANNELS 3 Zrotation Yrotation Xrotation
											End Site
											{
												OFFSET 0.000000 0.000000 0.000000
											}
										}
									}
								}
								JOINT right_ring_1
								{
									OFFSET -0.095423 -0.012362 -0.027099
									CHANNELS 3 Zrotation Yrotation Xrotation
									JOINT right_ring_2
									{
										OFFSET -0.023561 -0.016057 -0.001895
										CHANNELS 3 Zrotation Yrotation Xrotation
										JOINT right_ring_3
										{
											OFFSET -0.004257 -0.023548 0.000816
											CHANNELS 3 Zrotation Yrotation Xrotation
											End Site
											{
												OFFSET 0.000000 0.000000 0.000000
											}
										}
									}
								}
								JOINT right_thumb_1
								{
									OFFSET -0.038613 -0.021074 0.025861
									CHANNELS 3 Zrotation Yrotation Xrotation
									JOINT right_thumb_2
									{
										OFFSET -0.021636 -0.017639 0.011623
										CHANNELS 3 Zrotation Yrotation Xrotation
										JOINT right_thumb_3
										{
											OFFSET -0.024004 -0.008353 0.006547
											CHANNELS 3 Zrotation Yrotation Xrotation
											End Site
											{
												OFFSET 0.000000 0.000000 0.000000
											}
										}
									}
								}
							}
						}
					}
				}
			}
		}
	}
}
MOTION
Frames: 4
Frame Time: 0.050000
0.115450 1.027489 1.034058 3.077788 10.629035 -35.063942 -2.417968 2.897285 19.445993 3.067927 -6.844385 35.772886 -19.667710 -12.029259 22.732758 0.000000 0.000000 0.000000 -3.318820 -3.057065 26.197950 -4.541672 1.172858 13.434914 18.469032 12.194589 27.701330 0.000000 0.000000 0.000000 -4.612883 -3.103355 55.772856 2.699562 -5.604071 -30.367368 0.426496 14.072233 6.960777 7.436590 -8.112855 22.160114 0.000000 0.000000 0.000000 -9.199467 -7.259845 1.216320 -34.403910 -31.923293 -7.009062 -25.538883 -68.414906 21.056214 18.406488 2.220313 -37.474698 13.580537 14.867600 6.525189 12.527126 -4.864355 -23.383170 0.000000 0.000000 0.000000 1.519957 3.978702 2.846017 21.492317 -0.458997 -13.980740 0.000000 0.000000 0.000000 2.513703 -22.151869 -28.632879 3.569654 -0.210881 -0.803590 0.000000 0.000000 0.000000 0.222389 -6.732560 -4.381754 16.225537 1.047233 -6.161907 0.000000 0.000000 0.000000 33.186139 14.509672 -5.227522 -17.843466 -6.846411 2.674717 0.000000 0.000000 0.000000 17.865132 1.914621 2.291142 31.926771 34.716247 2.610396 -13.447441 75.960212 -9.212546 -0.845386 -6.232727 -57.737413 -19.276681 -18.020556 12.942966 -26.597587 4.356924 -25.989346 0.000000 0.000000 0.000000 1.801259 -9.610013 7.302500 -35.839005 1.511182 -14.416975 0.000000 0.000000 0.000000 -2.897689 28.366934 -34.257759 -15.189484 -0.695302 3.192408 0.000000 0.000000 0.000000 9.443293 14.029639 -6.052477 -26.169811 -0.759138 -10.791512 0.000000 0.000000 0.000000 -39.278498 -8.418362 -5.790134 23.405766 -4.735598 9.663789 0.000000 0.000000 0.000000 
0.115921 1.029423 1.039337 3.282323 10.334975 -33.845114 -2.109943 2.779458 18.629133 3.432023 -6.592708 34.207371 -18.592685 -10.904540 22.202881 0.000000 0.000000 0.000000 -3.467924 -2.936681 25.959050 -4.537619 1.102250 12.141759 18.788063 12.463154 27.825392 0.000000 0.000000 0.000000 -4.711469 -2.749175 53.943007 2.808598 -5.367932 -29.013867 -0.185424 13.870023 5.089812 7.320053 -8.697357 24.027020 0.000000 0.000000 0.000000 -9.082803 -6.783284 0.976637 -33.934800 -31.731764 -6.944215 -26.812651 -68.325889 21.864059 18.384642 3.232355 -36.084082 11.744078 15.269052 6.291410 14.854990 -4.472593 -24.338125 0.000000 0.000000 0.000000 1.419028 4.089496 2.886722 21.582304 -1.126575 -18.071221 0.000000 0.000000 0.000000 2.459058 -22.077359 -28.566525 10.369703 0.450046 1.681722 0.000000 0.000000 0.000000 -0.149107 -8.744310 -5.683131 17.617893 1.291199 -5.919990 0.000000 0.000000 0.000000 32.789901 13.487354 -6.074336 -17.913828 -6.587150 2.803866 0.000000 0.000000 0.000000 18.228721 2.478761 2.636707 30.850423 34.644191 2.333841 -11.336570 75.411069 -7.733555 -1.751073 -6.736309 -59.365194 -20.081728 -16.033646 12.229459 -25.554478 3.972745 -24.040042 0.000000 0.000000 0.000000 0.773759 -6.081875 4.607629 -28.676450 1.099650 -12.867829 0.000000 0.000000 0.000000 0.462611 31.434992 -34.797408 -16.364292 -0.628492 3.184744 0.000000 0.000000 0.000000 7.586017 14.945890 -7.170486 -24.142630 -1.002499 -8.456283 0.000000 0.000000 0.000000 -40.452501 -9.472588 -4.655564 27.183761 -2.626046 10.460691 0.000000 0.000000 0.000000 
0.117805 1.030712 1.039337 3.265480 10.283978 -33.543287 -1.846548 2.764834 18.870867 4.230141 -6.504208 32.527435 -18.175162 -10.356163 22.060043 0.000000 0.000000 0.000000 -3.648323 -2.936494 26.232041 -4.434407 1.029426 11.131586 18.764607 12.236438 28.075805 0.000000 0.000000 0.000000 -4.631885 -2.739279 53.585144 2.988202 -5.419639 -29.306646 0.051763 11.026026 7.808263 6.093720 -7.197782 21.897469 0.000000 0.000000 0.000000 -9.800133 -3.637382 -0.632076 -32.772245 -33.204961 -6.998767 -24.104956 -68.325719 20.636584 18.544172 2.564297 -37.296540 12.131948 14.684566 6.116522 14.550552 -4.554455 -24.137862 0.000000 0.000000 0.000000 0.604521 3.354319 2.310560 22.954095 -0.882824 -17.439793 0.000000 0.000000 0.000000 5.500605 -20.417222 -27.128036 4.798669 -0.137454 -0.679001 0.000000 0.000000 0.000000 0.087454 -9.319952 -6.072139 18.347205 1.386630 -5.957784 0.000000 0.000000 0.000000 31.940277 12.586058 -6.507492 -16.004837 -5.842293 2.350682 0.000000 0.000000 0.000000 17.560797 6.281284 4.879442 27.615079 37.636897 1.834692 -22.950939 72.663837 -16.271600 -1.931754 -5.423188 -60.529842 -19.837647 -19.398600 14.280977 -25.401251 7.726254 -32.105802 0.000000 0.000000 0.000000 4.779960 -7.914737 5.560650 -31.075178 2.843452 -20.111639 0.000000 0.000000 0.000000 -0.551272 31.558472 -35.363863 -17.173145 -0.413175 2.402263 0.000000 0.000000 0.000000 11.226292 16.844101 -6.629314 -26.849097 -0.541319 -11.607126 0.000000 0.000000 0.000000 -42.509550 -9.142842 -4.628837 30.323971 -0.920694 11.182704 0.000000 0.000000 0.000000 
0.120632 1.030712 1.039337 3.106233 10.561763 -33.535025 -1.609650 2.760930 19.379900 5.122443 -6.642424 31.579374 -18.844713 -10.072898 23.294211 0.000000 0.000000 0.000000 -3.805525 -2.951962 26.305838 -4.249293 0.995381 11.066311 18.527283 11.992319 28.050231 0.000000 0.000000 0.000000 -4.561773 -2.848628 53.425729 2.618595 -4.180919 -21.545447 -2.233581 9.242469 -4.459032 5.856162 -8.400377 27.087160 0.000000 0.000000 0.000000 -7.164460 -4.258451 0.336084 -35.010287 -32.346418 -6.210947 -23.401802 -66.017373 19.007292 18.557891 0.968676 -37.569541 11.114094 16.526879 6.574643 12.767643 -4.955364 -25.282938 0.000000 0.000000 0.000000 -2.211992 5.210851 3.003943 22.621015 -0.949057 -19.285191 0.000000 0.000000 0.000000 0.837404 -19.783633 -25.184469 3.211344 -0.713694 -2.372240 0.000000 0.000000 0.000000 -3.003854 -7.020579 -4.040216 11.393758 -0.969288 -11.513863 0.000000 0.000000 0.000000 32.474103 13.708561 -5.972940 -18.660135 -2.298322 4.245701 0.000000 0.000000 0.000000 16.425436 7.268577 4.925343 29.989899 34.941320 2.431763 -17.373517 72.045712 -12.759969 -2.284775 -6.092586 -59.963060 -19.087476 -18.629570 13.357717 -20.350373 8.884458 -29.972183 0.000000 0.000000 0.000000 3.642029 -4.855285 3.329359 -31.249538 2.025967 -16.961777 0.000000 0.000000 0.000000 -2.980153 30.247374 -36.011294 -10.347589 -0.179510 0.316405 0.000000 0.000000 0.000000 9.079825 16.034405 -7.215819 -25.846975 -0.239785 -12.378621 0.000000 0.000000 0.000000 -41.936289 -8.664436 -5.146335 28.778537 -2.998099 11.262343 0.000000 0.000000 0.000000 
